<?xml version="1.0" standalone="no"?>
<!DOCTYPE svg PUBLIC "-//W3C//DTD SVG 20010904//EN"
 "http://www.w3.org/TR/2001/REC-SVG-20010904/DTD/svg10.dtd">
<svg version="1.0" xmlns="http://www.w3.org/2000/svg"
 width="1280.000000pt" height="555.000000pt" viewBox="0 0 1280.000000 555.000000"
 preserveAspectRatio="xMidYMid meet">

<g transform="translate(0.000000,555.000000) scale(0.100000,-0.100000)"
fill="#000000" stroke="none">
<path d="M5525 5300 c-3 -6 1 -7 9 -4 18 7 21 14 7 14 -6 0 -13 -4 -16 -10z"/>
<path d="M5738 5253 c6 -2 18 -2 25 0 6 3 1 5 -13 5 -14 0 -19 -2 -12 -5z"/>
<path d="M6037 5035 c3 -8 9 -12 14 -9 12 7 11 11 -5 17 -10 4 -13 1 -9 -8z"/>
<path d="M5686 4917 c3 -10 9 -15 12 -12 3 3 0 11 -7 18 -10 9 -11 8 -5 -6z"/>
<path d="M5558 4853 c7 -3 16 -2 19 1 4 3 -2 6 -13 5 -11 0 -14 -3 -6 -6z"/>
<path d="M6150 4845 c-7 -9 -11 -17 -9 -20 3 -2 10 5 17 15 14 24 10 26 -8 5z"/>
<path d="M6110 4546 c0 -2 8 -10 18 -17 15 -13 16 -12 3 4 -13 16 -21 21 -21
13z"/>
<path d="M6690 4341 c0 -6 4 -13 10 -16 6 -3 7 1 4 9 -7 18 -14 21 -14 7z"/>
<path d="M5897 4329 c7 -7 15 -10 18 -7 3 3 -2 9 -12 12 -14 6 -15 5 -6 -5z"/>
<path d="M5620 4241 c0 -6 4 -13 10 -16 6 -3 7 1 4 9 -7 18 -14 21 -14 7z"/>
<path d="M6310 4246 c0 -2 7 -7 16 -10 8 -3 12 -2 9 4 -6 10 -25 14 -25 6z"/>
<path d="M6476 4137 c3 -10 9 -15 12 -12 3 3 0 11 -7 18 -10 9 -11 8 -5 -6z"/>
<path d="M6065 4099 c-4 -6 -5 -12 -2 -15 2 -3 7 2 10 11 7 17 1 20 -8 4z"/>
<path d="M6770 4075 c0 -2 10 -10 23 -16 20 -11 21 -11 8 4 -13 16 -31 23 -31
12z"/>
<path d="M6180 3969 c0 -5 5 -7 10 -4 6 3 10 8 10 11 0 2 -4 4 -10 4 -5 0 -10
-5 -10 -11z"/>
<path d="M6246 3957 c3 -10 9 -15 12 -12 3 3 0 11 -7 18 -10 9 -11 8 -5 -6z"/>
<path d="M6915 3900 c-3 -6 1 -7 9 -4 18 7 21 14 7 14 -6 0 -13 -4 -16 -10z"/>
<path d="M5966 3887 c3 -10 9 -15 12 -12 3 3 0 11 -7 18 -10 9 -11 8 -5 -6z"/>
<path d="M6210 3866 c0 -2 7 -7 16 -10 8 -3 12 -2 9 4 -6 10 -25 14 -25 6z"/>
<path d="M6650 3856 c0 -2 7 -9 15 -16 9 -7 15 -8 15 -2 0 5 -7 12 -15 16 -8
3 -15 4 -15 2z"/>
<path d="M7183 3823 c9 -2 15 -9 12 -14 -3 -5 1 -6 10 -2 13 5 14 7 3 14 -7 5
-20 8 -28 8 -11 -1 -10 -3 3 -6z"/>
<path d="M6341 3817 c2 -1 13 -9 24 -17 19 -14 19 -14 6 3 -7 9 -18 17 -24 17
-6 0 -8 -1 -6 -3z"/>
<path d="M6665 3750 c-3 -6 1 -7 9 -4 18 7 21 14 7 14 -6 0 -13 -4 -16 -10z"/>
<path d="M7147 3749 c7 -7 15 -10 18 -7 3 3 -2 9 -12 12 -14 6 -15 5 -6 -5z"/>
<path d="M7080 3670 c-6 -11 -8 -20 -6 -20 3 0 10 9 16 20 6 11 8 20 6 20 -3
0 -10 -9 -16 -20z"/>
<path d="M6166 3627 c3 -10 9 -15 12 -12 3 3 0 11 -7 18 -10 9 -11 8 -5 -6z"/>
<path d="M6131 3584 c0 -11 3 -14 6 -6 3 7 2 16 -1 19 -3 4 -6 -2 -5 -13z"/>
<path d="M7309 3563 c-13 -16 -12 -17 4 -4 16 13 21 21 13 21 -2 0 -10 -8 -17
-17z"/>
<path d="M7410 3555 c0 -8 2 -15 4 -15 2 0 6 7 10 15 3 8 1 15 -4 15 -6 0 -10
-7 -10 -15z"/>
<path d="M7159 3473 c-13 -16 -12 -17 4 -4 16 13 21 21 13 21 -2 0 -10 -8 -17
-17z"/>
<path d="M6220 3455 c0 -5 4 -16 9 -23 6 -11 10 -10 15 4 3 9 4 19 1 22 -3 3
-5 -1 -5 -9 0 -11 -2 -11 -10 1 -5 8 -10 11 -10 5z"/>
<path d="M6985 3349 c-4 -6 -5 -12 -2 -15 2 -3 7 2 10 11 7 17 1 20 -8 4z"/>
<path d="M7020 3350 c-8 -5 -12 -12 -9 -15 4 -3 12 1 19 10 14 17 11 19 -10 5z"/>
<path d="M6680 3329 c0 -5 5 -7 10 -4 6 3 10 8 10 11 0 2 -4 4 -10 4 -5 0 -10
-5 -10 -11z"/>
<path d="M6349 3173 c-13 -16 -12 -17 4 -4 16 13 21 21 13 21 -2 0 -10 -8 -17
-17z"/>
<path d="M6785 3179 c-4 -6 -5 -12 -2 -15 2 -3 7 2 10 11 7 17 1 20 -8 4z"/>
<path d="M7268 3183 c6 -2 10 -8 8 -12 -3 -4 0 -13 6 -21 8 -12 9 -11 4 4 -5
14 -2 17 11 12 15 -5 15 -4 -1 9 -11 8 -25 15 -30 14 -6 0 -5 -3 2 -6z"/>
<path d="M7726 3147 c3 -10 9 -15 12 -12 3 3 0 11 -7 18 -10 9 -11 8 -5 -6z"/>
<path d="M7615 3069 c-4 -6 -5 -12 -2 -15 2 -3 7 2 10 11 7 17 1 20 -8 4z"/>
<path d="M7025 2999 c-4 -6 -5 -12 -2 -15 2 -3 7 2 10 11 7 17 1 20 -8 4z"/>
<path d="M7140 2631 c0 -5 5 -13 10 -16 6 -3 10 -2 10 4 0 5 -4 13 -10 16 -5
3 -10 2 -10 -4z"/>
<path d="M6290 2581 c0 -6 4 -13 10 -16 6 -3 7 1 4 9 -7 18 -14 21 -14 7z"/>
<path d="M6749 2313 c-13 -16 -12 -17 4 -4 9 7 17 15 17 17 0 8 -8 3 -21 -13z"/>
<path d="M6425 2211 c-3 -5 -2 -12 3 -15 5 -3 9 1 9 9 0 17 -3 19 -12 6z"/>
<path d="M6700 1317 c-56 -28 -47 -119 14 -136 35 -9 80 8 90 34 14 37 6 74
-20 94 -31 24 -49 26 -84 8z"/>
<path d="M420 1301 c0 -6 18 -15 40 -21 42 -11 70 -33 70 -55 0 -10 -166 -464
-274 -749 -14 -37 -26 -73 -26 -78 0 -5 19 -8 41 -6 l42 3 52 150 53 150 173
0 173 0 57 -150 57 -150 67 -3 c61 -3 67 -1 61 15 -4 10 -54 140 -111 288 -57
149 -133 347 -168 440 l-66 170 -120 3 c-75 2 -121 -1 -121 -7z m253 -347 l74
-199 -150 -3 c-82 -1 -151 -1 -153 1 -2 2 21 71 52 153 31 82 65 173 76 202
11 29 22 52 24 49 2 -2 37 -93 77 -203z"/>
<path d="M1235 1026 c-108 -47 -164 -177 -152 -347 14 -180 103 -282 247 -283
64 0 112 21 153 67 l28 32 -5 -112 c-5 -120 -17 -156 -62 -192 -20 -16 -41
-21 -83 -21 -70 0 -114 25 -132 74 -13 36 -14 36 -70 36 -32 0 -60 -3 -62 -7
-10 -19 16 -74 48 -102 45 -39 100 -53 209 -53 78 0 96 4 145 29 42 22 62 39
81 73 l25 45 5 348 5 349 24 19 c13 10 34 19 47 19 15 0 24 6 24 15 0 12 -18
15 -100 15 l-100 0 0 -42 0 -42 -37 36 c-21 20 -48 41 -60 47 -29 15 -141 13
-178 -3z m183 -56 c45 -28 69 -72 83 -154 25 -152 -10 -308 -80 -349 -70 -41
-158 -9 -194 71 -26 58 -35 218 -18 297 13 59 55 129 85 144 34 16 89 12 124
-9z"/>
<path d="M1822 1025 c-39 -6 -75 -15 -79 -19 -9 -9 16 -26 38 -26 8 0 25 -10
37 -23 21 -22 22 -32 24 -292 l3 -270 52 -3 52 -3 3 218 c3 197 5 221 23 252
30 51 69 76 121 76 l44 0 0 53 0 52 -34 0 c-49 0 -97 -37 -128 -99 l-28 -55 0
77 0 77 -27 -1 c-16 -1 -61 -7 -101 -14z"/>
<path d="M2379 1026 c-119 -42 -175 -156 -167 -340 5 -113 27 -174 83 -231 55
-55 99 -70 200 -70 78 0 97 4 141 27 91 48 135 139 137 283 2 159 -47 262
-152 317 -45 24 -65 28 -130 28 -42 -1 -92 -7 -112 -14z m196 -60 c15 -10 39
-43 53 -74 25 -53 27 -67 27 -187 0 -119 -2 -134 -25 -179 -34 -68 -68 -91
-135 -91 -95 0 -147 63 -167 204 -14 95 0 224 30 275 31 53 79 78 139 74 28
-3 63 -12 78 -22z"/>
<path d="M2945 1025 c-44 -8 -81 -14 -82 -14 -2 -1 -3 -5 -3 -9 0 -4 19 -13
43 -19 31 -9 47 -20 55 -38 9 -19 12 -141 12 -435 l0 -410 50 0 50 0 2 138 c0
75 1 161 1 191 l-1 54 32 -36 c93 -109 277 -81 346 53 30 60 43 141 38 247 -9
192 -91 292 -241 293 -66 0 -103 -16 -140 -60 -14 -16 -28 -30 -30 -30 -3 0
-4 20 -3 45 2 52 5 51 -129 30z m366 -75 c93 -110 86 -407 -11 -495 -16 -14
-36 -20 -70 -20 -42 0 -54 5 -83 33 -52 50 -72 123 -71 258 0 101 3 117 28
169 36 72 74 98 136 92 35 -4 51 -12 71 -37z"/>
<path d="M3774 1024 c-55 -20 -109 -75 -129 -133 -23 -65 -31 -196 -15 -262
38 -160 128 -238 285 -247 45 -2 107 1 138 8 49 10 57 15 57 34 0 21 -2 22
-57 13 -119 -20 -225 39 -283 156 -29 59 -55 171 -44 188 3 5 93 9 201 9 l196
0 -6 62 c-7 76 -42 131 -106 165 -36 18 -59 23 -120 22 -42 0 -95 -7 -117 -15z
m182 -66 c33 -31 60 -99 48 -120 -3 -4 -66 -8 -141 -8 l-136 0 6 34 c12 74 72
126 145 126 34 0 49 -6 78 -32z"/>
<path d="M4382 1014 c-95 -47 -137 -134 -136 -284 0 -121 20 -192 74 -252 63
-72 114 -92 240 -93 121 0 160 8 160 33 0 15 -11 17 -77 17 -60 0 -87 5 -118
22 -56 30 -99 78 -132 148 -24 53 -28 72 -28 160 0 78 4 110 19 143 26 58 73
86 132 79 54 -6 81 -28 94 -79 l11 -38 59 0 c56 0 60 1 60 24 0 39 -42 89 -99
119 -77 38 -184 39 -259 1z"/>
<path d="M4900 1029 c-25 -4 -60 -11 -77 -14 -44 -8 -41 -22 7 -35 22 -6 44
-18 49 -28 5 -9 11 -109 13 -222 3 -133 9 -217 18 -240 27 -72 83 -110 165
-110 74 0 136 41 197 130 17 25 17 24 17 -47 l1 -73 50 0 50 0 0 325 c0 253
-3 325 -12 325 -7 0 -42 -5 -78 -10 -127 -20 -136 -27 -70 -53 55 -21 62 -46
58 -202 -3 -124 -5 -134 -36 -197 -43 -88 -89 -128 -146 -128 -47 0 -76 22
-95 73 -7 17 -11 124 -11 273 l0 244 -27 -1 c-16 -1 -48 -5 -73 -10z"/>
<path d="M5669 1013 c-54 -28 -81 -61 -94 -115 l-7 -28 59 0 60 0 12 39 c15
53 52 81 106 81 81 0 115 -53 115 -181 l0 -66 -77 -6 c-106 -8 -171 -30 -221
-72 -63 -54 -78 -126 -42 -200 50 -104 197 -114 308 -21 l32 28 0 -41 0 -41
50 0 51 0 -3 273 c-3 269 -3 272 -27 306 -36 50 -91 71 -187 71 -68 0 -89 -4
-135 -27z m251 -367 c0 -131 -74 -219 -165 -195 -77 22 -101 118 -45 182 32
37 105 65 173 66 l37 1 0 -54z"/>
<path d="M6260 1029 c-25 -4 -60 -11 -77 -14 -41 -7 -42 -24 -3 -32 17 -3 39
-17 50 -31 19 -23 20 -41 20 -293 l0 -269 50 0 50 0 0 143 c0 185 13 299 40
342 26 42 81 69 126 62 l34 -6 0 55 c0 54 0 54 -30 54 -59 0 -115 -44 -147
-115 l-17 -40 -4 29 c-2 16 -2 51 0 78 3 54 1 55 -92 37z"/>
<path d="M6672 1025 c-39 -6 -75 -15 -79 -19 -9 -9 16 -26 39 -26 9 0 26 -12
37 -26 20 -26 21 -39 21 -296 l0 -269 50 3 51 3 2 323 2 322 -25 -1 c-14 -1
-58 -7 -98 -14z"/>
<path d="M7097 1026 c-63 -23 -117 -86 -117 -136 0 -18 6 -20 60 -20 53 0 60
2 60 20 0 78 93 125 169 85 38 -19 51 -60 51 -156 l0 -79 -42 0 c-122 0 -243
-46 -285 -109 -32 -47 -32 -134 0 -182 57 -86 192 -93 284 -14 23 19 43 35 45
35 1 0 3 -17 3 -37 l0 -38 53 -3 53 -3 -3 263 c-3 295 -7 312 -75 358 -31 21
-49 25 -127 28 -60 1 -104 -3 -129 -12z m223 -391 c0 -113 -53 -185 -137 -185
-33 0 -50 6 -68 24 -49 49 -38 144 20 182 32 21 107 42 153 43 l32 1 0 -65z"/>
<path d="M10475 1030 c-3 -6 1 -7 9 -4 18 7 21 14 7 14 -6 0 -13 -4 -16 -10z"/>
<path d="M8576 737 c3 -10 9 -15 12 -12 3 3 0 11 -7 18 -10 9 -11 8 -5 -6z"/>
<path d="M9376 588 c3 -5 10 -6 15 -3 13 9 11 12 -6 12 -8 0 -12 -4 -9 -9z"/>
<path d="M9876 572 c-3 -5 1 -9 9 -9 8 0 12 4 9 9 -3 4 -7 8 -9 8 -2 0 -6 -4
-9 -8z"/>
<path d="M10320 496 c0 -2 8 -10 18 -17 15 -13 16 -12 3 4 -13 16 -21 21 -21
13z"/>
</g>
</svg>
